<mxfile host="app.diagrams.net" agent="Mozilla/5.0 (X11; Linux x86_64) AppleWebKit/537.36 (KHTML, like Gecko) Chrome/135.0.0.0 Safari/537.36" version="26.2.9" pages="2">
  <diagram name="Page-1" id="TK6IvCFTQyxgxqkcAPLH">
    <mxGraphModel dx="1190" dy="788" grid="1" gridSize="10" guides="1" tooltips="1" connect="1" arrows="1" fold="1" page="1" pageScale="1" pageWidth="850" pageHeight="1100" math="0" shadow="0">
      <root>
        <mxCell id="0" />
        <mxCell id="1" parent="0" />
        <mxCell id="TGViPBKi6nvNrfkVAzwn-3" value="" style="edgeStyle=orthogonalEdgeStyle;rounded=0;orthogonalLoop=1;jettySize=auto;html=1;" edge="1" parent="1" source="TGViPBKi6nvNrfkVAzwn-1" target="TGViPBKi6nvNrfkVAzwn-2">
          <mxGeometry relative="1" as="geometry" />
        </mxCell>
        <mxCell id="TGViPBKi6nvNrfkVAzwn-1" value="&lt;font style=&quot;font-size: 24px;&quot;&gt;start&lt;/font&gt;" style="strokeWidth=2;html=1;shape=mxgraph.flowchart.terminator;whiteSpace=wrap;" vertex="1" parent="1">
          <mxGeometry x="330" y="40" width="205" height="60" as="geometry" />
        </mxCell>
        <mxCell id="TGViPBKi6nvNrfkVAzwn-5" value="" style="edgeStyle=orthogonalEdgeStyle;rounded=0;orthogonalLoop=1;jettySize=auto;html=1;" edge="1" parent="1" source="TGViPBKi6nvNrfkVAzwn-2" target="TGViPBKi6nvNrfkVAzwn-4">
          <mxGeometry relative="1" as="geometry" />
        </mxCell>
        <mxCell id="TGViPBKi6nvNrfkVAzwn-2" value="arr[]={6,8,7,4,2,5,3}" style="whiteSpace=wrap;html=1;strokeWidth=2;" vertex="1" parent="1">
          <mxGeometry x="372.5" y="140" width="120" height="40" as="geometry" />
        </mxCell>
        <mxCell id="TGViPBKi6nvNrfkVAzwn-7" value="" style="edgeStyle=orthogonalEdgeStyle;rounded=0;orthogonalLoop=1;jettySize=auto;html=1;" edge="1" parent="1" source="TGViPBKi6nvNrfkVAzwn-4" target="TGViPBKi6nvNrfkVAzwn-6">
          <mxGeometry relative="1" as="geometry" />
        </mxCell>
        <mxCell id="TGViPBKi6nvNrfkVAzwn-21" style="edgeStyle=orthogonalEdgeStyle;rounded=0;orthogonalLoop=1;jettySize=auto;html=1;entryX=1;entryY=0.5;entryDx=0;entryDy=0;" edge="1" parent="1" source="TGViPBKi6nvNrfkVAzwn-4" target="TGViPBKi6nvNrfkVAzwn-20">
          <mxGeometry relative="1" as="geometry">
            <Array as="points">
              <mxPoint x="600" y="230" />
              <mxPoint x="600" y="740" />
            </Array>
          </mxGeometry>
        </mxCell>
        <mxCell id="TGViPBKi6nvNrfkVAzwn-4" value="for i = 0 to n-2" style="rounded=0;whiteSpace=wrap;html=1;" vertex="1" parent="1">
          <mxGeometry x="372.5" y="210" width="120" height="40" as="geometry" />
        </mxCell>
        <mxCell id="TGViPBKi6nvNrfkVAzwn-9" value="" style="edgeStyle=orthogonalEdgeStyle;rounded=0;orthogonalLoop=1;jettySize=auto;html=1;" edge="1" parent="1" source="TGViPBKi6nvNrfkVAzwn-6" target="TGViPBKi6nvNrfkVAzwn-8">
          <mxGeometry relative="1" as="geometry" />
        </mxCell>
        <mxCell id="TGViPBKi6nvNrfkVAzwn-6" value="i(min) = i" style="rounded=0;whiteSpace=wrap;html=1;" vertex="1" parent="1">
          <mxGeometry x="372.5" y="277" width="120" height="40" as="geometry" />
        </mxCell>
        <mxCell id="TGViPBKi6nvNrfkVAzwn-11" value="" style="edgeStyle=orthogonalEdgeStyle;rounded=0;orthogonalLoop=1;jettySize=auto;html=1;" edge="1" parent="1" source="TGViPBKi6nvNrfkVAzwn-8" target="TGViPBKi6nvNrfkVAzwn-10">
          <mxGeometry relative="1" as="geometry" />
        </mxCell>
        <mxCell id="TGViPBKi6nvNrfkVAzwn-15" style="edgeStyle=orthogonalEdgeStyle;rounded=0;orthogonalLoop=1;jettySize=auto;html=1;entryX=1;entryY=0.5;entryDx=0;entryDy=0;" edge="1" parent="1" source="TGViPBKi6nvNrfkVAzwn-8" target="TGViPBKi6nvNrfkVAzwn-14">
          <mxGeometry relative="1" as="geometry">
            <Array as="points">
              <mxPoint x="433" y="450" />
              <mxPoint x="513" y="450" />
              <mxPoint x="513" y="620" />
            </Array>
          </mxGeometry>
        </mxCell>
        <mxCell id="TGViPBKi6nvNrfkVAzwn-19" style="edgeStyle=orthogonalEdgeStyle;rounded=0;orthogonalLoop=1;jettySize=auto;html=1;entryX=1;entryY=0.5;entryDx=0;entryDy=0;" edge="1" parent="1" source="TGViPBKi6nvNrfkVAzwn-8" target="TGViPBKi6nvNrfkVAzwn-18">
          <mxGeometry relative="1" as="geometry">
            <Array as="points">
              <mxPoint x="560" y="360" />
              <mxPoint x="560" y="680" />
            </Array>
          </mxGeometry>
        </mxCell>
        <mxCell id="TGViPBKi6nvNrfkVAzwn-8" value="for j = i+1 to n-1" style="rounded=0;whiteSpace=wrap;html=1;" vertex="1" parent="1">
          <mxGeometry x="372.5" y="340" width="120" height="40" as="geometry" />
        </mxCell>
        <mxCell id="TGViPBKi6nvNrfkVAzwn-13" value="" style="edgeStyle=orthogonalEdgeStyle;rounded=0;orthogonalLoop=1;jettySize=auto;html=1;" edge="1" parent="1" source="TGViPBKi6nvNrfkVAzwn-10" target="TGViPBKi6nvNrfkVAzwn-12">
          <mxGeometry relative="1" as="geometry" />
        </mxCell>
        <mxCell id="TGViPBKi6nvNrfkVAzwn-10" value="if(a(j)) &amp;lt; a(i(min))" style="strokeWidth=2;html=1;shape=mxgraph.flowchart.decision;whiteSpace=wrap;" vertex="1" parent="1">
          <mxGeometry x="363.75" y="400" width="137.5" height="100" as="geometry" />
        </mxCell>
        <mxCell id="TGViPBKi6nvNrfkVAzwn-16" style="edgeStyle=orthogonalEdgeStyle;rounded=0;orthogonalLoop=1;jettySize=auto;html=1;" edge="1" parent="1" source="TGViPBKi6nvNrfkVAzwn-12" target="TGViPBKi6nvNrfkVAzwn-14">
          <mxGeometry relative="1" as="geometry" />
        </mxCell>
        <mxCell id="TGViPBKi6nvNrfkVAzwn-12" value="i(min) = i" style="rounded=0;whiteSpace=wrap;html=1;" vertex="1" parent="1">
          <mxGeometry x="372.5" y="530" width="120" height="40" as="geometry" />
        </mxCell>
        <mxCell id="TGViPBKi6nvNrfkVAzwn-17" style="edgeStyle=orthogonalEdgeStyle;rounded=0;orthogonalLoop=1;jettySize=auto;html=1;entryX=0;entryY=0.5;entryDx=0;entryDy=0;" edge="1" parent="1" source="TGViPBKi6nvNrfkVAzwn-14" target="TGViPBKi6nvNrfkVAzwn-8">
          <mxGeometry relative="1" as="geometry">
            <Array as="points">
              <mxPoint x="330" y="620" />
              <mxPoint x="330" y="360" />
            </Array>
          </mxGeometry>
        </mxCell>
        <mxCell id="TGViPBKi6nvNrfkVAzwn-14" value="" style="rounded=0;whiteSpace=wrap;html=1;" vertex="1" parent="1">
          <mxGeometry x="372.5" y="600" width="120" height="40" as="geometry" />
        </mxCell>
        <mxCell id="TGViPBKi6nvNrfkVAzwn-18" value="a(i) = a(i(min))" style="rounded=0;whiteSpace=wrap;html=1;" vertex="1" parent="1">
          <mxGeometry x="372.5" y="660" width="120" height="40" as="geometry" />
        </mxCell>
        <mxCell id="TGViPBKi6nvNrfkVAzwn-20" value="end" style="rounded=0;whiteSpace=wrap;html=1;" vertex="1" parent="1">
          <mxGeometry x="372.5" y="720" width="120" height="40" as="geometry" />
        </mxCell>
      </root>
    </mxGraphModel>
  </diagram>
  <diagram id="H-MZ8pRDJFZX_ZNwMtd6" name="Page-2">
    <mxGraphModel dx="985" dy="652" grid="1" gridSize="10" guides="1" tooltips="1" connect="1" arrows="1" fold="1" page="1" pageScale="1" pageWidth="850" pageHeight="1100" math="0" shadow="0">
      <root>
        <mxCell id="0" />
        <mxCell id="1" parent="0" />
        <mxCell id="R7Q228cxJgDKjmLcT3-a-7" value="" style="edgeStyle=orthogonalEdgeStyle;rounded=0;orthogonalLoop=1;jettySize=auto;html=1;" edge="1" parent="1" source="R7Q228cxJgDKjmLcT3-a-1" target="R7Q228cxJgDKjmLcT3-a-6">
          <mxGeometry relative="1" as="geometry" />
        </mxCell>
        <mxCell id="R7Q228cxJgDKjmLcT3-a-1" value="arr[]={6,8,7,4,2,5,3}&lt;div&gt;n = 7&lt;/div&gt;" style="whiteSpace=wrap;html=1;strokeWidth=2;" vertex="1" parent="1">
          <mxGeometry x="365" y="140" width="120" height="40" as="geometry" />
        </mxCell>
        <mxCell id="R7Q228cxJgDKjmLcT3-a-3" value="" style="edgeStyle=orthogonalEdgeStyle;rounded=0;orthogonalLoop=1;jettySize=auto;html=1;" edge="1" parent="1" source="R7Q228cxJgDKjmLcT3-a-2" target="R7Q228cxJgDKjmLcT3-a-1">
          <mxGeometry relative="1" as="geometry" />
        </mxCell>
        <mxCell id="R7Q228cxJgDKjmLcT3-a-2" value="&lt;font style=&quot;font-size: 18px;&quot;&gt;start&lt;/font&gt;" style="strokeWidth=2;html=1;shape=mxgraph.flowchart.terminator;whiteSpace=wrap;" vertex="1" parent="1">
          <mxGeometry x="357" y="40" width="137" height="70" as="geometry" />
        </mxCell>
        <mxCell id="R7Q228cxJgDKjmLcT3-a-12" value="" style="edgeStyle=orthogonalEdgeStyle;rounded=0;orthogonalLoop=1;jettySize=auto;html=1;" edge="1" parent="1" source="R7Q228cxJgDKjmLcT3-a-5" target="R7Q228cxJgDKjmLcT3-a-11">
          <mxGeometry relative="1" as="geometry" />
        </mxCell>
        <mxCell id="R7Q228cxJgDKjmLcT3-a-5" value="while j &amp;gt;= 0 &amp;amp;&amp;amp; arr[j] &amp;gt; key" style="whiteSpace=wrap;html=1;strokeWidth=2;" vertex="1" parent="1">
          <mxGeometry x="365" y="340" width="120" height="40" as="geometry" />
        </mxCell>
        <mxCell id="R7Q228cxJgDKjmLcT3-a-9" value="" style="edgeStyle=orthogonalEdgeStyle;rounded=0;orthogonalLoop=1;jettySize=auto;html=1;" edge="1" parent="1" source="R7Q228cxJgDKjmLcT3-a-6" target="R7Q228cxJgDKjmLcT3-a-8">
          <mxGeometry relative="1" as="geometry" />
        </mxCell>
        <mxCell id="R7Q228cxJgDKjmLcT3-a-15" style="edgeStyle=orthogonalEdgeStyle;rounded=0;orthogonalLoop=1;jettySize=auto;html=1;entryX=1;entryY=0.5;entryDx=0;entryDy=0;" edge="1" parent="1" source="R7Q228cxJgDKjmLcT3-a-6" target="R7Q228cxJgDKjmLcT3-a-13">
          <mxGeometry relative="1" as="geometry">
            <Array as="points">
              <mxPoint x="505" y="230" />
              <mxPoint x="505" y="490" />
            </Array>
          </mxGeometry>
        </mxCell>
        <mxCell id="R7Q228cxJgDKjmLcT3-a-6" value="for i = 1" style="whiteSpace=wrap;html=1;strokeWidth=2;" vertex="1" parent="1">
          <mxGeometry x="365.5" y="210" width="120" height="40" as="geometry" />
        </mxCell>
        <mxCell id="R7Q228cxJgDKjmLcT3-a-10" value="" style="edgeStyle=orthogonalEdgeStyle;rounded=0;orthogonalLoop=1;jettySize=auto;html=1;" edge="1" parent="1" source="R7Q228cxJgDKjmLcT3-a-8" target="R7Q228cxJgDKjmLcT3-a-5">
          <mxGeometry relative="1" as="geometry" />
        </mxCell>
        <mxCell id="R7Q228cxJgDKjmLcT3-a-8" value="key = arr[i]&lt;div&gt;j = i - 1&lt;/div&gt;" style="whiteSpace=wrap;html=1;strokeWidth=2;" vertex="1" parent="1">
          <mxGeometry x="365" y="276" width="120" height="40" as="geometry" />
        </mxCell>
        <mxCell id="R7Q228cxJgDKjmLcT3-a-14" style="edgeStyle=orthogonalEdgeStyle;rounded=0;orthogonalLoop=1;jettySize=auto;html=1;entryX=0;entryY=0.5;entryDx=0;entryDy=0;" edge="1" parent="1" source="R7Q228cxJgDKjmLcT3-a-11" target="R7Q228cxJgDKjmLcT3-a-5">
          <mxGeometry relative="1" as="geometry">
            <Array as="points">
              <mxPoint x="345" y="430" />
              <mxPoint x="345" y="360" />
            </Array>
          </mxGeometry>
        </mxCell>
        <mxCell id="R7Q228cxJgDKjmLcT3-a-11" value="arr[j+1] = arr[j]&lt;div&gt;j--&lt;/div&gt;" style="whiteSpace=wrap;html=1;strokeWidth=2;" vertex="1" parent="1">
          <mxGeometry x="365" y="410" width="120" height="40" as="geometry" />
        </mxCell>
        <mxCell id="R7Q228cxJgDKjmLcT3-a-18" value="" style="edgeStyle=orthogonalEdgeStyle;rounded=0;orthogonalLoop=1;jettySize=auto;html=1;" edge="1" parent="1" source="R7Q228cxJgDKjmLcT3-a-13" target="R7Q228cxJgDKjmLcT3-a-17">
          <mxGeometry relative="1" as="geometry" />
        </mxCell>
        <mxCell id="R7Q228cxJgDKjmLcT3-a-13" value="arr[j+1] = key" style="whiteSpace=wrap;html=1;strokeWidth=2;" vertex="1" parent="1">
          <mxGeometry x="365.5" y="470" width="120" height="40" as="geometry" />
        </mxCell>
        <mxCell id="R7Q228cxJgDKjmLcT3-a-17" value="end" style="whiteSpace=wrap;html=1;strokeWidth=2;" vertex="1" parent="1">
          <mxGeometry x="365.5" y="530" width="120" height="40" as="geometry" />
        </mxCell>
      </root>
    </mxGraphModel>
  </diagram>
</mxfile>
